<?xml version="1.0" encoding="UTF-8" standalone="no"?>
<svg
   xmlns:dc="http://purl.org/dc/elements/1.1/"
   xmlns:cc="http://creativecommons.org/ns#"
   xmlns:rdf="http://www.w3.org/1999/02/22-rdf-syntax-ns#"
   xmlns:svg="http://www.w3.org/2000/svg"
   xmlns="http://www.w3.org/2000/svg"
   xmlns:xlink="http://www.w3.org/1999/xlink"
   xmlns:sodipodi="http://sodipodi.sourceforge.net/DTD/sodipodi-0.dtd"
   xmlns:inkscape="http://www.inkscape.org/namespaces/inkscape"
   version="1.1"
   width="240"
   height="240"
   viewBox="0 0 24 24"
   id="svg4"
   sodipodi:docname="flask.svg"
   inkscape:version="0.92.5 (2060ec1f9f, 2020-04-08)">
  <metadata
     id="metadata10">
    <rdf:RDF>
      <cc:Work
         rdf:about="">
        <dc:format>image/svg+xml</dc:format>
        <dc:type
           rdf:resource="http://purl.org/dc/dcmitype/StillImage" />
      </cc:Work>
    </rdf:RDF>
  </metadata>
  <defs
     id="defs8">
    <linearGradient
       inkscape:collect="always"
       id="linearGradient821">
      <stop
         style="stop-color:#00f600;stop-opacity:1"
         offset="0"
         id="stop817" />
      <stop
         style="stop-color:#ff15ec;stop-opacity:1"
         offset="1"
         id="stop819" />
    </linearGradient>
    <linearGradient
       inkscape:collect="always"
       xlink:href="#linearGradient821"
       id="linearGradient823"
       x1="3"
       y1="12"
       x2="21"
       y2="12"
       gradientUnits="userSpaceOnUse" />
  </defs>
  <sodipodi:namedview
     pagecolor="#ffffff"
     bordercolor="#666666"
     borderopacity="1"
     objecttolerance="10"
     gridtolerance="10"
     guidetolerance="10"
     inkscape:pageopacity="0"
     inkscape:pageshadow="2"
     inkscape:window-width="1147"
     inkscape:window-height="832"
     id="namedview6"
     showgrid="false"
     inkscape:zoom="0.98333333"
     inkscape:cx="120"
     inkscape:cy="120"
     inkscape:window-x="56"
     inkscape:window-y="56"
     inkscape:window-maximized="0"
     inkscape:current-layer="svg4" />
  <path
     fill="#ffffff"
     d="M6,22A3,3 0 0,1 3,19C3,18.4 3.18,17.84 3.5,17.37L9,7.81V6A1,1 0 0,1 8,5V4A2,2 0 0,1 10,2H14A2,2 0 0,1 16,4V5A1,1 0 0,1 15,6V7.81L20.5,17.37C20.82,17.84 21,18.4 21,19A3,3 0 0,1 18,22H6M5,19A1,1 0 0,0 6,20H18A1,1 0 0,0 19,19C19,18.79 18.93,18.59 18.82,18.43L16.53,14.47L14,17L8.93,11.93L5.18,18.43C5.07,18.59 5,18.79 5,19M13,10A1,1 0 0,0 12,11A1,1 0 0,0 13,12A1,1 0 0,0 14,11A1,1 0 0,0 13,10Z"
     id="path2"
     style="fill-opacity:1;fill:url(#linearGradient823)" />
</svg>
